<?xml version="1.0" encoding="UTF-8" standalone="no"?>
<svg
   xmlns:dc="http://purl.org/dc/elements/1.1/"
   xmlns:cc="http://creativecommons.org/ns#"
   xmlns:rdf="http://www.w3.org/1999/02/22-rdf-syntax-ns#"
   xmlns:svg="http://www.w3.org/2000/svg"
   xmlns="http://www.w3.org/2000/svg"
   xmlns:xlink="http://www.w3.org/1999/xlink"
   xmlns:sodipodi="http://sodipodi.sourceforge.net/DTD/sodipodi-0.dtd"
   xmlns:inkscape="http://www.inkscape.org/namespaces/inkscape"
   id="svg2327"
   viewBox="0 0 48 48"
   version="1.1"
   inkscape:version="0.48.2 r9819"
   width="100%"
   height="100%"
   sodipodi:docname="input-keyboard.svg">
  <sodipodi:namedview
     pagecolor="#ffffff"
     bordercolor="#666666"
     borderopacity="1"
     objecttolerance="10"
     gridtolerance="10"
     guidetolerance="10"
     inkscape:pageopacity="0"
     inkscape:pageshadow="2"
     inkscape:window-width="1680"
     inkscape:window-height="987"
     id="namedview112"
     showgrid="false"
     inkscape:zoom="4.9166667"
     inkscape:cx="19.392951"
     inkscape:cy="29.61697"
     inkscape:window-x="-8"
     inkscape:window-y="-8"
     inkscape:window-maximized="1"
     inkscape:current-layer="svg2327" />
  <defs
     id="defs3">
    <radialGradient
       id="radialGradient6719"
       xlink:href="#linearGradient5060"
       gradientUnits="userSpaceOnUse"
       cy="486.65"
       cx="605.71"
       gradientTransform="matrix(-2.7744,0,0,1.9697,112.76,-872.89)"
       r="117.14" />
    <linearGradient
       id="linearGradient5060">
      <stop
         id="stop5062"
         offset="0" />
      <stop
         id="stop5064"
         stop-opacity="0"
         offset="1" />
    </linearGradient>
    <radialGradient
       id="radialGradient6717"
       xlink:href="#linearGradient5060"
       gradientUnits="userSpaceOnUse"
       cy="486.65"
       cx="605.71"
       gradientTransform="matrix(2.7744,0,0,1.9697,-1891.6,-872.89)"
       r="117.14" />
    <linearGradient
       id="linearGradient6715"
       y2="609.51"
       gradientUnits="userSpaceOnUse"
       x2="302.86"
       gradientTransform="matrix(2.7744,0,0,1.9697,-1892.2,-872.89)"
       y1="366.65"
       x1="302.86">
      <stop
         id="stop5050"
         stop-opacity="0"
         offset="0" />
      <stop
         id="stop5056"
         offset=".5" />
      <stop
         id="stop5052"
         stop-opacity="0"
         offset="1" />
    </linearGradient>
    <linearGradient
       id="linearGradient4003"
       y2="43.378"
       gradientUnits="userSpaceOnUse"
       y1="20.937"
       x2="30.142"
       x1="12.094"
       gradientTransform="matrix(1.0628803,0,0,1.0628945,-1.3347634,-0.07472361)">
      <stop
         id="stop3999"
         stop-color="#ebebeb"
         offset="0" />
      <stop
         id="stop4001"
         stop-color="#acacac"
         offset="1" />
    </linearGradient>
    <linearGradient
       id="linearGradient4015"
       y2="52.666"
       gradientUnits="userSpaceOnUse"
       y1="19.736"
       x2="17.701"
       x1="11.89"
       gradientTransform="matrix(1.0628803,0,0,1.0628945,-1.3347634,-0.07472361)">
      <stop
         id="stop4011"
         stop-color="#fff"
         offset="0" />
      <stop
         id="stop4013"
         stop-color="#fff"
         stop-opacity="0"
         offset="1" />
    </linearGradient>
    <linearGradient
       id="linearGradient4554"
       y2="5.011"
       gradientUnits="userSpaceOnUse"
       y1="14.911"
       x2="35.257"
       x1="11.503"
       gradientTransform="matrix(1.0628803,0,0,1.0628945,-1.3347634,-0.07472361)">
      <stop
         id="stop4550"
         stop-color="#8c8c8c"
         offset="0" />
      <stop
         id="stop4552"
         stop-color="#8c8c8c"
         stop-opacity="0"
         offset="1" />
    </linearGradient>
  </defs>
  <g
     id="layer1"
     transform="translate(1.3220339,2.440678)">
    <path
       id="path3995"
       d="M 9.82548,20.385996 C 10.091201,12.547149 14.209862,8.6941561 19.657124,8.827018 25.104385,8.9598798 25.901545,12.414287 33.075988,12.414287 40.25043,12.414287 40.25043,7.6312616 39.05469,6.3026435 37.858949,4.9740253 36.530349,3.6454071 36.530349,3.6454071"
       style="fill:none;stroke:url(#linearGradient4554);stroke-width:0.99999994px"
       inkscape:connector-curvature="0" />
    <path
       id="path3233"
       d="M 0.3924172,43.206342 C 0.06026709,44.202274 0.59170731,44.866583 1.5881576,44.933546 H 43.837652 C 45.366073,44.999444 45.963412,44.003512 45.830552,43.206342 L 41.977611,22.660591 C 41.777789,21.331972 40.649011,20.601763 39.58613,20.667663 H 6.9025593 C 5.839679,20.601763 5.2418088,21.531797 5.0425187,22.527729 L 0.3924172,43.206342 z"
       style="fill:url(#linearGradient4003);fill-rule:evenodd;stroke:#626262;stroke-width:0.99999994"
       inkscape:connector-curvature="0" />
    <g
       id="g4019"
       transform="matrix(1.0628804,0,0,1.0628946,-3.3940942,-1.1376182)"
       style="fill-rule:evenodd">
      <rect
         id="rect4017"
         style="color:#000000;fill:#6d6d6d"
         rx="0.6875"
         ry="0.6875"
         height="2.9375"
         width="13.938"
         y="35.125"
         x="11.188" />
      <rect
         id="rect3235"
         style="color:#000000;fill:#e4e4e4"
         rx="0.6875"
         ry="0.6875"
         height="1.875"
         width="13.438"
         y="35.062"
         x="11.312" />
    </g>
    <g
       id="g4157"
       transform="matrix(0.24784246,0,0,1.0628946,3.8821725,-12.354344)"
       style="fill-rule:evenodd">
      <rect
         id="rect4159"
         style="color:#000000;fill:#6d6d6d"
         rx="2.9482999"
         ry="0.6875"
         height="2.9375"
         width="13.938"
         y="35.125"
         x="11.188" />
      <rect
         id="rect4161"
         style="color:#000000;fill:#e4e4e4"
         rx="2.9482999"
         ry="0.6875"
         height="1.875"
         width="13.438"
         y="35.062"
         x="11.312" />
    </g>
    <g
       id="g4178"
       transform="matrix(0.24784246,0,0,1.0628946,20.76996,-12.354344)"
       style="fill-rule:evenodd">
      <rect
         id="rect4180"
         style="color:#000000;fill:#6d6d6d"
         rx="2.9482999"
         ry="0.6875"
         height="2.9375"
         width="13.938"
         y="35.125"
         x="11.188" />
      <rect
         id="rect4182"
         style="color:#000000;fill:#e4e4e4"
         rx="2.9482999"
         ry="0.6875"
         height="1.875"
         width="13.438"
         y="35.062"
         x="11.312" />
    </g>
    <g
       id="g4151"
       transform="matrix(0.24784246,0,0,1.0628946,8.0157145,-12.354344)"
       style="fill-rule:evenodd">
      <rect
         id="rect4153"
         style="color:#000000;fill:#6d6d6d"
         rx="2.9482999"
         ry="0.6875"
         height="2.9375"
         width="13.938"
         y="35.125"
         x="11.188" />
      <rect
         id="rect4155"
         style="color:#000000;fill:#e4e4e4"
         rx="2.9482999"
         ry="0.6875"
         height="1.875"
         width="13.438"
         y="35.062"
         x="11.312" />
    </g>
    <path
       id="path4005"
       d="M 1.5520196,42.655762 C 1.1977616,43.976941 1.1364335,43.818569 2.5467694,43.818569 H 42.653497 C 44.398746,43.818569 44.99077,44.104487 44.59963,42.5888 L 41.032604,23.296201 C 40.747752,21.80496 40.31516,21.715677 38.644312,21.715677 H 7.8239703 C 6.3218015,21.715677 6.3906761,21.799646 6.0698988,23.13783 L 1.5519133,42.655762 z"
       style="fill:none;stroke:url(#linearGradient4015);stroke-width:0.99999994"
       inkscape:connector-curvature="0" />
    <g
       id="g4023"
       transform="matrix(0.24784246,0,0,1.0628946,21.069693,-1.1376182)"
       style="fill-rule:evenodd">
      <rect
         id="rect4025"
         style="color:#000000;fill:#6d6d6d"
         rx="2.9482999"
         ry="0.6875"
         height="2.9375"
         width="13.938"
         y="35.125"
         x="11.188" />
      <rect
         id="rect4027"
         style="color:#000000;fill:#e4e4e4"
         rx="2.9482999"
         ry="0.6875"
         height="1.875"
         width="13.438"
         y="35.062"
         x="11.312" />
    </g>
    <g
       id="g4029"
       transform="matrix(0.24784246,0,0,1.0628946,1.6053763,-1.1376182)"
       style="fill-rule:evenodd">
      <rect
         id="rect4031"
         style="color:#000000;fill:#6d6d6d"
         rx="2.9482999"
         ry="0.6875"
         height="2.9375"
         width="13.938"
         y="35.125"
         x="11.188" />
      <rect
         id="rect4033"
         style="color:#000000;fill:#e4e4e4"
         rx="2.9482999"
         ry="0.6875"
         height="1.875"
         width="13.438"
         y="35.062"
         x="11.312" />
    </g>
    <g
       id="g4035"
       transform="matrix(0.24784246,0,0,1.0628946,27.314116,-1.1376182)"
       style="fill-rule:evenodd">
      <rect
         id="rect4037"
         style="color:#000000;fill:#6d6d6d"
         rx="2.9482999"
         ry="0.6875"
         height="2.9375"
         width="13.938"
         y="35.125"
         x="11.188" />
      <rect
         id="rect4039"
         style="color:#000000;fill:#e4e4e4"
         rx="2.9482999"
         ry="0.6875"
         height="1.875"
         width="13.438"
         y="35.062"
         x="11.312" />
    </g>
    <g
       id="g4053"
       transform="matrix(0.24784246,0,0,1.0628946,31.034197,-4.3263019)"
       style="fill-rule:evenodd">
      <rect
         id="rect4055"
         style="color:#000000;fill:#6d6d6d"
         rx="2.9482999"
         ry="0.6875"
         height="2.9375"
         width="13.938"
         y="35.125"
         x="11.188" />
      <rect
         id="rect4057"
         style="color:#000000;fill:#e4e4e4"
         rx="2.9482999"
         ry="0.6875"
         height="1.875"
         width="13.438"
         y="35.062"
         x="11.312" />
    </g>
    <g
       id="g4041"
       transform="matrix(0.24784246,0,0,1.0628946,31.299917,-1.1376182)"
       style="fill-rule:evenodd">
      <rect
         id="rect4043"
         style="color:#000000;fill:#6d6d6d"
         rx="2.9482999"
         ry="0.6875"
         height="2.9375"
         width="13.938"
         y="35.125"
         x="11.188" />
      <rect
         id="rect4045"
         style="color:#000000;fill:#e4e4e4"
         rx="2.9482999"
         ry="0.6875"
         height="1.875"
         width="13.438"
         y="35.062"
         x="11.312" />
    </g>
    <g
       id="g4047"
       transform="matrix(0.24784246,0,0,1.0628946,35.218757,-1.1376182)"
       style="fill-rule:evenodd">
      <rect
         id="rect4049"
         style="color:#000000;fill:#6d6d6d"
         rx="2.9482999"
         ry="0.6875"
         height="2.9375"
         width="13.938"
         y="35.125"
         x="11.188" />
      <rect
         id="rect4051"
         style="color:#000000;fill:#e4e4e4"
         rx="2.9482999"
         ry="0.6875"
         height="1.875"
         width="13.438"
         y="35.062"
         x="11.312" />
    </g>
    <g
       id="g4085"
       transform="matrix(0.24784246,0,0,1.0628946,2.6019331,-5.4537141)"
       style="fill-rule:evenodd">
      <rect
         id="rect4087"
         style="color:#000000;fill:#6d6d6d"
         rx="2.9482999"
         ry="0.6875"
         height="2.9375"
         width="13.938"
         y="35.125"
         x="11.188" />
      <rect
         id="rect4089"
         style="color:#000000;fill:#e4e4e4"
         rx="2.9482999"
         ry="0.6875"
         height="1.875"
         width="13.438"
         y="35.062"
         x="11.312" />
    </g>
    <g
       id="g4091"
       transform="matrix(0.24784246,0,0,1.0628946,6.8534548,-5.4537141)"
       style="fill-rule:evenodd">
      <rect
         id="rect4093"
         style="color:#000000;fill:#6d6d6d"
         rx="2.9482999"
         ry="0.6875"
         height="2.9375"
         width="13.938"
         y="35.125"
         x="11.188" />
      <rect
         id="rect4095"
         style="color:#000000;fill:#e4e4e4"
         rx="2.9482999"
         ry="0.6875"
         height="1.875"
         width="13.438"
         y="35.062"
         x="11.312" />
    </g>
    <g
       id="g4097"
       transform="matrix(0.24784246,0,0,1.0628946,11.105189,-5.4537141)"
       style="fill-rule:evenodd">
      <rect
         id="rect4099"
         style="color:#000000;fill:#6d6d6d"
         rx="2.9482999"
         ry="0.6875"
         height="2.9375"
         width="13.938"
         y="35.125"
         x="11.188" />
      <rect
         id="rect4101"
         style="color:#000000;fill:#e4e4e4"
         rx="2.9482999"
         ry="0.6875"
         height="1.875"
         width="13.438"
         y="35.062"
         x="11.312" />
    </g>
    <g
       id="g4103"
       transform="matrix(0.24784246,0,0,1.0628946,15.35671,-5.4537141)"
       style="fill-rule:evenodd">
      <rect
         id="rect4105"
         style="color:#000000;fill:#6d6d6d"
         rx="2.9482999"
         ry="0.6875"
         height="2.9375"
         width="13.938"
         y="35.125"
         x="11.188" />
      <rect
         id="rect4107"
         style="color:#000000;fill:#e4e4e4"
         rx="2.9482999"
         ry="0.6875"
         height="1.875"
         width="13.438"
         y="35.062"
         x="11.312" />
    </g>
    <g
       id="g4121"
       transform="matrix(0.24784246,0,0,1.0628946,21.733994,-8.8007691)"
       style="fill-rule:evenodd">
      <rect
         id="rect4123"
         style="color:#000000;fill:#6d6d6d"
         rx="2.9482999"
         ry="0.6875"
         height="2.9375"
         width="13.938"
         y="35.125"
         x="11.188" />
      <rect
         id="rect4125"
         style="color:#000000;fill:#e4e4e4"
         rx="2.9482999"
         ry="0.6875"
         height="1.875"
         width="13.438"
         y="35.062"
         x="11.312" />
    </g>
    <g
       id="g4109"
       transform="matrix(0.24784246,0,0,1.0628946,19.608232,-5.4537141)"
       style="fill-rule:evenodd">
      <rect
         id="rect4111"
         style="color:#000000;fill:#6d6d6d"
         rx="2.9482999"
         ry="0.6875"
         height="2.9375"
         width="13.938"
         y="35.125"
         x="11.188" />
      <rect
         id="rect4113"
         style="color:#000000;fill:#e4e4e4"
         rx="2.9482999"
         ry="0.6875"
         height="1.875"
         width="13.438"
         y="35.062"
         x="11.312" />
    </g>
    <g
       id="g4115"
       transform="matrix(0.24784246,0,0,1.0628946,23.859754,-5.4537141)"
       style="fill-rule:evenodd">
      <rect
         id="rect4117"
         style="color:#000000;fill:#6d6d6d"
         rx="2.9482999"
         ry="0.6875"
         height="2.9375"
         width="13.938"
         y="35.125"
         x="11.188" />
      <rect
         id="rect4119"
         style="color:#000000;fill:#e4e4e4"
         rx="2.9482999"
         ry="0.6875"
         height="1.875"
         width="13.438"
         y="35.062"
         x="11.312" />
    </g>
    <g
       id="g4172"
       transform="matrix(0.24784246,0,0,1.0628946,16.518439,-12.354344)"
       style="fill-rule:evenodd">
      <rect
         id="rect4174"
         style="color:#000000;fill:#6d6d6d"
         rx="2.9482999"
         ry="0.6875"
         height="2.9375"
         width="13.938"
         y="35.125"
         x="11.188" />
      <rect
         id="rect4176"
         style="color:#000000;fill:#e4e4e4"
         rx="2.9482999"
         ry="0.6875"
         height="1.875"
         width="13.438"
         y="35.062"
         x="11.312" />
    </g>
    <g
       id="g4127"
       transform="matrix(0.24784246,0,0,1.0628946,17.482471,-8.8007691)"
       style="fill-rule:evenodd">
      <rect
         id="rect4129"
         style="color:#000000;fill:#6d6d6d"
         rx="2.9482999"
         ry="0.6875"
         height="2.9375"
         width="13.938"
         y="35.125"
         x="11.188" />
      <rect
         id="rect4131"
         style="color:#000000;fill:#e4e4e4"
         rx="2.9482999"
         ry="0.6875"
         height="1.875"
         width="13.438"
         y="35.062"
         x="11.312" />
    </g>
    <g
       id="g4166"
       transform="matrix(0.24784246,0,0,1.0628946,12.266917,-12.354344)"
       style="fill-rule:evenodd">
      <rect
         id="rect4168"
         style="color:#000000;fill:#6d6d6d"
         rx="2.9482999"
         ry="0.6875"
         height="2.9375"
         width="13.938"
         y="35.125"
         x="11.188" />
      <rect
         id="rect4170"
         style="color:#000000;fill:#e4e4e4"
         rx="2.9482999"
         ry="0.6875"
         height="1.875"
         width="13.438"
         y="35.062"
         x="11.312" />
    </g>
    <g
       id="g4133"
       transform="matrix(0.24784246,0,0,1.0628946,13.230949,-8.8007691)"
       style="fill-rule:evenodd">
      <rect
         id="rect4135"
         style="color:#000000;fill:#6d6d6d"
         rx="2.9482999"
         ry="0.6875"
         height="2.9375"
         width="13.938"
         y="35.125"
         x="11.188" />
      <rect
         id="rect4137"
         style="color:#000000;fill:#e4e4e4"
         rx="2.9482999"
         ry="0.6875"
         height="1.875"
         width="13.438"
         y="35.062"
         x="11.312" />
    </g>
    <g
       id="g4139"
       transform="matrix(0.24784246,0,0,1.0628946,8.9792156,-8.8007691)"
       style="fill-rule:evenodd">
      <rect
         id="rect4141"
         style="color:#000000;fill:#6d6d6d"
         rx="2.9482999"
         ry="0.6875"
         height="2.9375"
         width="13.938"
         y="35.125"
         x="11.188" />
      <rect
         id="rect4143"
         style="color:#000000;fill:#e4e4e4"
         rx="2.9482999"
         ry="0.6875"
         height="1.875"
         width="13.438"
         y="35.062"
         x="11.312" />
    </g>
    <g
       id="g4145"
       transform="matrix(0.24784246,0,0,1.0628946,4.7276939,-8.8007691)"
       style="fill-rule:evenodd">
      <rect
         id="rect4147"
         style="color:#000000;fill:#6d6d6d"
         rx="2.9482999"
         ry="0.6875"
         height="2.9375"
         width="13.938"
         y="35.125"
         x="11.188" />
      <rect
         id="rect4149"
         style="color:#000000;fill:#e4e4e4"
         rx="2.9482999"
         ry="0.6875"
         height="1.875"
         width="13.438"
         y="35.062"
         x="11.312" />
    </g>
    <g
       id="g4220"
       transform="matrix(0.24784246,0,0,1.0628946,29.096566,-8.7068092)"
       style="fill-rule:evenodd">
      <rect
         id="rect4222"
         style="color:#000000;fill:#6d6d6d"
         rx="2.9482999"
         ry="0.6875"
         height="2.9375"
         width="13.938"
         y="35.125"
         x="11.188" />
      <rect
         id="rect4224"
         style="color:#000000;fill:#e4e4e4"
         rx="2.9482999"
         ry="0.6875"
         height="1.875"
         width="13.438"
         y="35.062"
         x="11.312" />
    </g>
    <g
       id="g4226"
       transform="matrix(0.24784246,0,0,1.0628946,33.348088,-8.7068092)"
       style="fill-rule:evenodd">
      <rect
         id="rect4228"
         style="color:#000000;fill:#6d6d6d"
         rx="2.9482999"
         ry="0.6875"
         height="2.9375"
         width="13.938"
         y="35.125"
         x="11.188" />
      <rect
         id="rect4230"
         style="color:#000000;fill:#e4e4e4"
         rx="2.9482999"
         ry="0.6875"
         height="1.875"
         width="13.438"
         y="35.062"
         x="11.312" />
    </g>
    <g
       id="g4264"
       transform="matrix(1.0628804,0,0,1.5411971,-0.43029468,-9.9523084)"
       style="fill-rule:evenodd">
      <rect
         id="rect4254"
         style="color:#000000;fill:#787843"
         rx="2.9482999"
         ry="0.47413999"
         height="1.5026"
         width="2.4749"
         y="21.572001"
         x="29.521999" />
      <rect
         id="rect4256"
         style="color:#000000;fill:#787843"
         rx="2.9482999"
         ry="0.47413999"
         height="1.5026"
         width="2.4749"
         y="21.572001"
         x="33.521999" />
      <rect
         id="rect4250"
         style="color:#000000;fill:#e7e745"
         rx="2.9482999"
         ry="0.47413999"
         height="1.5026"
         width="2.4749"
         y="21.837"
         x="29.787001" />
      <rect
         id="rect4252"
         style="color:#000000;fill:#e7e745"
         rx="2.9482999"
         ry="0.47413999"
         height="1.5026"
         width="2.4749"
         y="21.837"
         x="33.786999" />
    </g>
  </g>
  <metadata
     id="metadata110">
    <rdf:RDF>
      <cc:Work>
        <dc:format>image/svg+xml</dc:format>
        <dc:type
           rdf:resource="http://purl.org/dc/dcmitype/StillImage" />
        <cc:license
           rdf:resource="http://creativecommons.org/licenses/publicdomain/" />
        <dc:publisher>
          <cc:Agent
             rdf:about="http://openclipart.org/">
            <dc:title>Openclipart</dc:title>
          </cc:Agent>
        </dc:publisher>
        <dc:title></dc:title>
      </cc:Work>
      <cc:License
         rdf:about="http://creativecommons.org/licenses/publicdomain/">
        <cc:permits
           rdf:resource="http://creativecommons.org/ns#Reproduction" />
        <cc:permits
           rdf:resource="http://creativecommons.org/ns#Distribution" />
        <cc:permits
           rdf:resource="http://creativecommons.org/ns#DerivativeWorks" />
      </cc:License>
    </rdf:RDF>
  </metadata>
  <g
     transform="matrix(0.2366443,0,0,0.23664744,-68.822448,-73.567869)"
     id="layer1-1">
    <g
       transform="translate(242.05,236.9)"
       id="g2570">
      <path
         d="M 219.94,224.08 C 218.92,223.36 218.54,222.46 218.54,220.76 218.54,218.21 210.87,217.11 208.25,219.29 207.68,219.76 206.79,219.98 206.27,219.78 201.72,218.03 213.76,205.48 219.99,205.48 225.69,205.48 224.18,202.32 215.39,195.87 209.49,191.54 205.7,187.44 203.98,183.55 200.36,175.38 200.76,175.74 198.07,178.21 194.54,181.45 193.99,182.77 195.22,185.08 196.62,187.69 196.21,191.2 194.57,190.77 193.23,190.41 192.09,193.03 192.09,196.45 192.09,199.14 194.63,201.97 196.51,201.38 198.33,200.79 198.15,203 196.21,204.82 195.15,205.83 194.17,206.18 193.07,205.97 191.72,205.71 191.46,205.89 191.46,207.11 191.46,208.66 189.35,210.54 187.62,210.54 187.04,210.54 186.22,210.96 185.79,211.48 185.33,212.04 183.94,212.43 182.41,212.44 178.8,212.45 178.45,212.84 177.93,217.33 177.39,222.03 175.75,223.8 171.89,223.8 168.88,223.8 168.26,222.86 170.04,220.97 172.6,218.23 167.39,214.39 164.53,216.91 163.38,217.92 161.94,218.75 161.32,218.75 160.1,218.75 157.45,221.23 157.45,222.38 157.45,223.69 156.16,223.92 154.59,222.89 153.48,222.16 153.05,221.3 153.04,219.84 153.04,217.43 146.39,216.47 144.1,218.55 139.94,222.32 140.32,216.54 144.54,211.69 146.45,209.5 148.01,207.49 148.01,207.23 148.01,206.96 148.34,206.75 148.75,206.75 149.16,206.75 150.27,205.82 151.22,204.69 152.53,203.15 153.17,202.8 153.85,203.27 154.35,203.62 155.53,204.45 156.47,205.12 158.18,206.33 158.18,206.33 160.68,203.54 164.47,199.31 166.44,193.18 164.42,191.93 163.76,191.52 163.94,186.87 164.68,185.12 165.01,184.33 164.86,184.01 164.13,184.01 162.65,184.01 162.88,181.85 164.72,178.54 166.03,176.2 166.17,175.5 165.53,174.72 164.7,173.72 166.2,172.01 167.92,172.01 168.35,172.01 169.34,171.09 170.11,169.96 171.61,167.78 175.09,164.44 175.87,164.44 176.13,164.44 176.35,164.02 176.35,163.51 176.35,159.57 160.92,162.23 145.17,168.9 137.9,171.98 132.65,172.87 123.69,172.52 119.75,172.37 116.52,172.36 116.52,172.49 116.52,173.83 118.11,175.17 119.69,175.17 120.72,175.17 121.56,175.46 121.56,175.81 121.56,176.76 117.69,178.96 116.03,178.96 114.58,178.96 114.39,179.22 113.76,182.16 113.56,183.06 112.71,184.81 111.87,186.06 110.25,188.45 110.32,189.07 112.22,189.07 113.71,189.07 113.68,189.77 112.07,191.82 111.19,192.94 110.16,193.49 108.92,193.49 107.22,193.49 107.08,193.66 107.08,195.78 107.08,198.22 102.6,204.46 97.838,208.65 95.824,210.42 95.638,210.9 95.414,214.82 95.121,219.96 93.488,221.9 89.445,221.9 86.4,221.9 85.76,220.98 87.514,219.1 88.866,217.66 88.866,217.66 86.671,215.46 84.476,213.26 84.476,213.26 83.731,215.06 83.322,216.06 81.605,218.03 79.917,219.44 78.23,220.86 76.849,222.4 76.849,222.87 76.849,224.31 75.611,224.59 73.987,223.52 72.849,222.77 72.44,221.94 72.44,220.37 72.44,218.23 72.44,218.23 69.764,218.54 65.853,218.99 65.513,219.18 65.513,220.9 65.513,223.31 64.224,223.59 62.561,221.53 61.132,219.76 61.055,218.73 62.143,215.89 62.512,214.92 62.395,214.9 61.043,215.64 60.212,216.1 58.259,216.63 56.704,216.82 54.522,217.09 53.826,217.45 53.652,218.43 53.276,220.53 52.419,220.95 51.045,219.71 46.139,215.25 59.788,201.21 65.499,204.83 67.704,206.23 70.427,201.44 74.935,188.23 80.528,171.84 80.794,167.68 76.54,163.12 74.715,161.16 73.441,159.07 72.946,157.21 72.273,154.68 71.969,154.33 70.458,154.33 67.984,154.33 67.65,153.22 69.531,151.25 70.985,149.73 71.098,149.3 70.545,147.36 69.644,144.22 69.72,143.87 71.851,141.44 73.78,139.23 73.78,139.23 71.707,138.7 69.633,138.16 69.633,138.16 71.667,136.95 73.748,135.72 74.724,134.01 74.011,132.86 73.792,132.5 74.482,131.11 75.545,129.76 76.608,128.41 77.478,126.85 77.478,126.28 77.478,125.71 77.974,125.07 78.58,124.85 82.415,123.49 82.383,121.5 78.526,121.5 77.065,121.5 75.261,121.07 74.517,120.55 73.252,119.66 73.063,119.73 71.581,121.63 70.071,123.56 69.942,123.6 68.808,122.57 68.154,121.98 67.303,121.5 66.918,121.5 65.388,121.5 65.463,120.04 67.08,118.35 68.311,117.06 68.667,116.19 68.363,115.23 68.01,114.12 68.365,113.71 70.526,112.74 73.111,111.58 73.111,111.58 69.47,111.19 65.359,110.76 61.735,109.65 61.735,108.82 61.735,107.71 65.535,106.34 68.631,106.34 72.414,106.34 72.512,106 69.553,103.15 66.893,100.58 65.513,98.153 65.513,96.028 65.513,95.185 65.088,94.142 64.569,93.71 61.716,91.336 65.215,88.518 75.581,84.841 84.905,81.534 85.176,81.398 86.869,79.192 90.007,75.101 95.199,73.612 96.246,76.501 97.782,80.738 98.249,80.869 102.78,78.326 107.44,75.712 108.35,75.564 109.81,77.183 111.24,78.76 111.29,87.753 109.89,89.76 109,91.036 109.04,91.331 110.45,93.532 112.61,96.912 113.8,101.24 114.63,108.75 116.06,121.78 117.37,124.65 122.82,126.73 131.08,129.88 130.59,129.84 146.59,128.72 170.13,127.09 183.31,128.32 200.59,133.77 219.85,139.84 224.14,139.77 230.99,133.28 242.49,122.36 242.45,106.15 230.89,100.23 223.1,96.239 213.1,98.732 218.66,103.28 222.55,106.46 218.41,109.19 212.67,107.23 203.81,104.2 206.5,94.602 217.36,90.463 228.95,86.048 246.27,96.75 249.38,110.24 253.15,126.65 239.06,149.91 225.35,149.91 223.84,149.91 223.81,152.84 225.29,155.95 226.29,158.04 226.3,158.31 225.38,158.98 223.26,160.54 226.89,164.44 230.47,164.44 231.18,164.44 231.76,164.68 231.76,164.97 231.76,165.99 229.45,167.59 227.97,167.59 226.49,167.59 226.49,167.59 228.1,169.33 230.31,171.71 230.93,173.07 231.47,176.75 232.6,184.49 237.65,189.7 244.01,189.7 247.05,189.7 247.4,190.16 246,192.4 245.53,193.17 244.98,195.81 244.79,198.25 244.44,202.9 242.26,208.88 240.36,210.46 239.39,211.27 239.38,211.39 240.33,212.09 242,213.31 240.96,220.24 238.86,221.91 235.5,224.55 230.37,223.15 233.03,220.31 234.43,218.82 234.43,218.82 232.63,217.22 230.82,215.63 230.82,215.63 229.02,217.82 228.04,219.02 226.88,220.01 226.46,220.01 225.54,220.01 223.29,222.39 222.74,223.96 222.27,225.32 221.73,225.34 219.94,224.08 z"
         id="path6445"
         inkscape:connector-curvature="0"
         style="fill:#ffff00" />
      <path
         d="M 219.94,224.08 C 218.92,223.36 218.54,222.46 218.54,220.76 218.54,218.21 210.87,217.11 208.25,219.29 207.68,219.76 206.79,219.98 206.27,219.78 201.72,218.03 213.76,205.48 219.99,205.48 225.69,205.48 224.18,202.32 215.39,195.87 209.49,191.54 205.7,187.44 203.98,183.55 200.37,175.38 200.76,175.74 198.07,178.21 194.54,181.45 193.99,182.77 195.22,185.08 196.62,187.69 196.21,191.2 194.57,190.77 193.23,190.41 192.09,193.03 192.09,196.45 192.09,199.14 194.63,201.97 196.51,201.38 198.33,200.79 198.15,203 196.21,204.82 195.15,205.83 194.17,206.18 193.07,205.97 191.72,205.71 191.46,205.89 191.46,207.11 191.46,208.66 189.35,210.54 187.62,210.54 187.04,210.54 186.22,210.96 185.79,211.48 185.33,212.04 183.94,212.43 182.41,212.44 178.8,212.45 178.45,212.84 177.93,217.33 177.39,222.03 175.75,223.8 171.89,223.8 168.88,223.8 168.26,222.86 170.04,220.97 172.6,218.23 167.39,214.39 164.53,216.91 163.38,217.92 161.94,218.75 161.32,218.75 160.1,218.75 157.45,221.23 157.45,222.38 157.45,223.69 156.16,223.92 154.59,222.89 153.48,222.16 153.05,221.3 153.04,219.84 153.04,217.43 146.39,216.47 144.1,218.55 139.94,222.32 140.32,216.54 144.54,211.69 146.45,209.5 148.01,207.49 148.01,207.23 148.01,206.96 148.34,206.75 148.75,206.75 149.16,206.75 150.27,205.82 151.22,204.69 152.53,203.15 153.17,202.8 153.85,203.27 154.35,203.62 155.53,204.45 156.47,205.12 158.18,206.33 158.18,206.33 160.68,203.54 164.47,199.31 166.44,193.18 164.42,191.93 163.76,191.52 163.94,186.87 164.68,185.12 165.01,184.33 164.86,184.01 164.13,184.01 162.65,184.01 162.88,181.85 164.72,178.54 166.03,176.2 166.17,175.5 165.53,174.72 164.7,173.72 166.2,172.01 167.92,172.01 168.35,172.01 169.34,171.09 170.11,169.96 171.61,167.78 175.09,164.44 175.87,164.44 176.13,164.44 176.35,164.02 176.35,163.51 176.35,159.57 160.92,162.23 145.17,168.9 137.9,171.98 132.65,172.87 123.69,172.52 119.75,172.37 116.52,172.36 116.52,172.49 116.52,173.83 118.11,175.17 119.69,175.17 120.72,175.17 121.56,175.46 121.56,175.81 121.56,176.76 117.69,178.96 116.03,178.96 114.58,178.96 114.39,179.22 113.76,182.16 113.56,183.06 112.71,184.81 111.87,186.06 110.25,188.45 110.32,189.07 112.22,189.07 113.71,189.07 113.68,189.77 112.07,191.82 111.19,192.94 110.16,193.49 108.92,193.49 107.22,193.49 107.08,193.66 107.08,195.78 107.08,198.22 102.6,204.46 97.838,208.65 95.824,210.42 95.638,210.9 95.414,214.82 95.121,219.96 93.488,221.9 89.445,221.9 86.4,221.9 85.76,220.98 87.514,219.1 88.866,217.66 88.866,217.66 86.671,215.46 84.476,213.26 84.476,213.26 83.731,215.06 83.322,216.06 81.605,218.03 79.917,219.44 78.23,220.86 76.849,222.4 76.849,222.87 76.849,224.31 75.611,224.59 73.987,223.52 72.849,222.77 72.44,221.94 72.44,220.37 72.44,218.23 72.44,218.23 69.764,218.54 65.853,218.99 65.513,219.18 65.513,220.9 65.513,223.31 64.224,223.59 62.561,221.53 61.132,219.76 61.055,218.73 62.143,215.89 62.512,214.92 62.395,214.9 61.043,215.64 60.212,216.1 58.259,216.63 56.704,216.82 54.522,217.09 53.826,217.45 53.652,218.43 53.276,220.53 52.419,220.95 51.045,219.71 46.139,215.25 59.788,201.21 65.499,204.83 67.704,206.23 70.427,201.44 74.935,188.23 80.528,171.84 80.794,167.68 76.54,163.12 74.715,161.16 73.441,159.07 72.946,157.21 72.273,154.68 71.969,154.33 70.458,154.33 67.984,154.33 67.65,153.22 69.531,151.25 70.985,149.73 71.098,149.3 70.545,147.36 69.644,144.22 69.72,143.87 71.851,141.44 73.78,139.23 73.78,139.23 71.707,138.7 69.633,138.16 69.633,138.16 71.667,136.95 73.748,135.72 74.724,134.01 74.011,132.86 73.792,132.5 74.482,131.11 75.545,129.76 76.608,128.41 77.478,126.85 77.478,126.28 77.478,125.71 77.974,125.07 78.58,124.85 82.415,123.49 82.383,121.5 78.526,121.5 77.065,121.5 75.261,121.07 74.517,120.55 73.252,119.66 73.063,119.73 71.581,121.63 70.071,123.56 69.942,123.6 68.808,122.57 68.154,121.98 67.303,121.5 66.918,121.5 65.388,121.5 65.463,120.04 67.08,118.35 68.311,117.06 68.667,116.19 68.363,115.23 68.01,114.12 68.365,113.71 70.526,112.74 73.111,111.58 73.111,111.58 69.47,111.19 65.359,110.76 61.735,109.65 61.735,108.82 61.735,107.71 65.535,106.34 68.631,106.34 72.414,106.34 72.512,106 69.553,103.15 66.893,100.58 65.513,98.153 65.513,96.028 65.513,95.185 65.088,94.142 64.569,93.71 61.716,91.336 65.215,88.518 75.581,84.841 84.905,81.534 85.176,81.398 86.869,79.192 90.007,75.101 95.199,73.612 96.246,76.501 97.782,80.738 98.249,80.869 102.78,78.326 107.44,75.712 108.35,75.564 109.81,77.183 111.24,78.76 111.29,87.753 109.89,89.76 109,91.036 109.04,91.331 110.45,93.532 112.61,96.912 113.8,101.24 114.63,108.75 116.06,121.78 117.37,124.65 122.82,126.73 131.08,129.88 130.59,129.84 146.59,128.72 170.13,127.09 183.31,128.32 200.59,133.77 219.85,139.84 224.14,139.77 230.99,133.28 242.49,122.36 242.45,106.15 230.89,100.23 223.1,96.239 213.1,98.732 218.66,103.28 222.55,106.46 218.41,109.19 212.67,107.23 203.81,104.2 206.5,94.602 217.36,90.463 228.95,86.048 246.27,96.75 249.38,110.24 253.15,126.65 239.06,149.91 225.35,149.91 223.84,149.91 223.81,152.84 225.29,155.95 226.29,158.04 226.3,158.31 225.38,158.98 223.26,160.54 226.89,164.44 230.47,164.44 231.18,164.44 231.76,164.68 231.76,164.97 231.76,165.99 229.45,167.59 227.97,167.59 226.49,167.59 226.49,167.59 228.1,169.33 230.31,171.71 230.93,173.07 231.47,176.75 232.6,184.49 237.65,189.7 244.01,189.7 247.05,189.7 247.4,190.16 246,192.4 245.53,193.17 244.98,195.81 244.79,198.25 244.44,202.9 242.26,208.88 240.36,210.46 239.39,211.27 239.38,211.39 240.33,212.09 242,213.31 240.96,220.24 238.86,221.91 235.5,224.55 230.37,223.15 233.03,220.31 234.43,218.82 234.43,218.82 232.63,217.22 230.82,215.63 230.82,215.63 229.02,217.82 228.04,219.02 226.88,220.01 226.46,220.01 225.54,220.01 223.29,222.39 222.74,223.96 222.27,225.32 221.73,225.34 219.94,224.08 z M 223.13,220.17 C 224.72,218.42 224.37,217.99 221.79,218.5 220.29,218.81 219.8,219.24 219.8,220.28 219.8,221.97 221.22,223.65 221.6,222.4 221.74,221.95 222.43,220.95 223.13,220.17 z M 77.04,219.54 C 78.626,217.79 78.275,217.35 75.694,217.87 74.192,218.17 73.704,218.61 73.704,219.65 73.704,221.34 75.131,223.02 75.508,221.77 75.643,221.32 76.332,220.32 77.04,219.54 z M 174.354,221.53 C 175.364,220.82 175.734,220.01 175.594,218.84 175.374,216.87 173.644,216.56 173.304,218.43 173.174,219.12 172.484,220.33 171.764,221.11 170.114,222.92 171.954,223.21 174.354,221.53 z M 157.644,218.91 C 159.234,217.16 158.884,216.72 156.294,217.24 154.794,217.54 154.314,217.98 154.314,219.01 154.314,220.71 155.734,222.39 156.114,221.14 156.244,220.69 156.934,219.69 157.644,218.91 z M 237.324,220.89 C 238.334,220.19 238.704,219.38 238.574,218.21 238.344,216.24 236.614,215.93 236.274,217.8 236.154,218.49 235.464,219.7 234.744,220.48 233.084,222.28 234.934,222.58 237.324,220.89 z M 65.564,217.46 C 66.368,217.03 66.782,216.14 66.782,214.84 66.782,212.87 66.776,212.87 65.458,214.07 63.112,216.2 62.218,218.55 63.137,220.17 63.939,221.59 63.939,221.59 64.143,219.85 64.255,218.89 64.895,217.82 65.564,217.46 z M 91.867,219.63 C 92.87,218.93 93.244,218.12 93.109,216.95 92.881,214.98 91.154,214.67 90.815,216.54 90.689,217.23 89.998,218.44 89.279,219.22 87.622,221.02 89.469,221.32 91.867,219.63 z M 53.949,215.38 C 55.521,213.51 55.847,212.12 54.858,211.51 54.135,211.06 51.039,215.01 51.039,216.39 51.039,218.35 51.907,219.89 52.199,218.43 52.337,217.73 53.125,216.36 53.949,215.38 z M 211.129,216.22 C 212.809,216.22 213.509,215.22 213.509,212.8 213.509,210.35 212.809,210.5 209.989,213.56 207.239,216.56 205.979,219.43 208.359,217.26 208.999,216.69 210.239,216.22 211.129,216.22 z M 228.609,213.72 C 229.749,210.81 230.259,210.06 230.499,210.96 231.209,213.63 234.109,216.52 235.189,215.63 235.799,215.12 236.919,214.95 238.069,215.18 240.759,215.72 240.479,214.5 237.279,211.72 235.809,210.45 234.819,209.18 235.069,208.92 235.329,208.66 236.059,208.91 236.699,209.49 238.159,210.81 239.839,209.25 241.729,204.83 244.759,197.71 244.169,196.15 237.669,194.14 232.989,192.69 230.509,191.2 230.509,189.83 230.509,189.03 230.789,189.1 231.929,190.16 232.709,190.88 235.309,192.07 237.709,192.81 240.099,193.54 242.439,194.46 242.899,194.84 243.559,195.38 243.739,195.2 243.739,194 243.739,193.16 244.079,192.13 244.489,191.72 245.079,191.13 244.649,190.96 242.569,190.96 238.369,190.96 230.509,184.95 230.509,181.73 230.509,180.75 230.399,180.76 229.239,181.82 227.369,183.51 226.249,182.18 227.689,179.98 228.279,179.07 229.039,178.33 229.369,178.33 229.699,178.33 229.829,177.83 229.669,177.22 229.499,176.62 229.189,175.3 228.959,174.3 228.739,173.3 226.939,170.78 224.969,168.69 221.549,165.07 221.469,164.91 223.269,165.33 228.379,166.54 229.139,166.49 226.699,165.14 225.309,164.37 223.819,162.71 222.749,160.73 221.799,158.99 219.829,156.56 218.369,155.33 214.729,152.27 216.979,152.27 221.139,155.33 225.269,158.38 225.059,156.81 220.779,152.65 218.859,150.78 217.639,149.14 217.999,148.91 218.359,148.69 219.479,149.31 220.489,150.28 221.619,151.37 222.299,151.7 222.249,151.14 222.079,148.89 214.849,143.33 213.589,144.47 212.529,145.44 212.369,145.44 212.029,144.55 211.469,143.09 214.449,141.83 216.069,142.84 217.709,143.87 219.489,143.79 220.439,142.65 220.869,142.13 221.539,141.71 221.929,141.72 222.319,141.73 221.739,142.56 220.639,143.56 218.569,145.46 218.489,146.54 220.509,145.45 221.149,145.11 222.379,145.01 223.259,145.23 226.199,145.97 227.319,144.98 225.339,143.39 224.229,142.49 223.809,141.73 224.139,141.19 224.519,140.58 225.139,140.84 226.649,142.26 228.589,144.08 228.749,144.11 231.319,143.34 233.979,142.55 233.979,142.55 231.179,142.05 227.329,141.36 229.349,139.57 233.329,140.13 235.269,140.4 236.309,140.18 237.749,139.18 239.639,137.87 239.639,137.87 236.179,138.24 232.879,138.6 232.789,138.57 234.289,137.66 235.159,137.13 236.349,136.69 236.949,136.67 239.829,136.61 242.319,134.56 244.569,130.38 248.309,123.43 249.499,111.4 246.239,113.44 243.989,114.85 243.039,112.87 245.149,111.16 253.239,104.64 230.079,88.18 218.419,92.165 210.059,95.02 206.959,101.75 212.449,105.11 216.249,107.43 218.899,106.49 216.269,103.74 209.439,96.59 225.709,93.432 234.249,100.25 234.979,100.83 235.079,100.76 234.739,99.867 234.469,99.132 234.639,98.762 235.239,98.762 235.739,98.762 236.339,99.543 236.559,100.5 237.219,103.3 239.879,105.79 241.359,105 243.019,104.11 243.649,104.89 242.119,105.96 239.899,107.52 240.719,115.35 243.219,116.29 245.539,117.17 245.299,118.44 242.639,119.24 240.129,120 239.479,122.49 241.399,124.05 242.709,125.1 242.699,125.12 240.389,126.22 239.109,126.83 238.069,127.6 238.069,127.95 238.069,133.78 222.149,141.93 214.859,139.83 213.249,139.37 212.409,139.45 211.299,140.18 209.959,141.06 209.779,141.04 208.929,139.83 207.769,138.17 193.939,133.37 192.649,134.19 191.339,135.02 189.079,134.87 188.509,133.91 186.699,130.86 177.649,130.16 175.689,132.91 174.109,135.14 172.579,134.59 173.829,132.24 174.239,131.48 174.469,130.78 174.359,130.69 173.709,130.15 163.129,129.85 163.129,130.37 163.129,130.71 162.609,130.65 161.949,130.24 160.059,129.06 144.929,130.39 144.139,131.8 143.399,133.12 141.089,133.2 141.089,131.91 141.089,131.3 140.479,130.97 139.359,130.98 136.889,130.99 134.609,134.29 135.579,136.43 136.079,137.54 136.079,138.14 135.569,138.66 133.899,140.32 132.489,134.99 134.039,132.89 135.419,131.03 135.419,131.03 131.479,130.84 127.549,130.65 127.549,130.65 126.269,134.74 124.629,139.98 122.609,141.47 119.909,139.44 117.689,137.78 117.419,136.89 119.019,136.47 119.729,136.29 120.309,136.39 120.309,136.69 120.309,138.41 122.819,138.51 123.669,136.82 124.869,134.44 125.639,130.08 124.759,130.63 124.389,130.85 123.459,130.6 122.689,130.06 121.289,129.07 121.289,129.07 122.849,129.02 123.869,128.98 123.379,128.68 121.389,128.13 116.449,126.77 115.139,123.61 113.109,108.23 111.509,96.139 109.089,91.718 105.159,93.729 103.149,94.757 102.679,94.824 102.679,94.081 102.679,93.576 103.229,92.987 103.899,92.773 108.159,91.417 111.019,82.137 108.439,78.056 107.409,76.432 99.585,81.073 97.927,84.289 96.87,86.338 95.427,86.803 95.914,84.939 96.771,81.649 87.305,81.761 78.432,85.145 76.007,86.07 73.21,87.086 72.215,87.404 69.166,88.378 67.179,89.94 67.974,90.737 68.987,91.753 68.828,94.32 67.726,94.744 65.469,95.613 67.81,100.28 71.847,102.96 74.219,104.53 74.615,104.61 76.438,103.88 80.23,102.35 80.881,102.26 80.464,103.35 80.202,104.04 80.977,105.09 82.905,106.68 89.621,112.19 88.992,113.26 79.025,113.28 73.62,113.28 71.787,113.51 70.838,114.28 69.634,115.27 69.634,115.28 70.875,114.78 72.532,114.11 84.857,113.68 84.228,114.31 83.961,114.58 80.914,114.97 77.458,115.18 71.25,115.56 71.153,115.59 69.355,117.74 67.157,120.37 67.39,121.03 69.771,118.92 71.028,117.81 71.198,117.75 70.398,118.7 69.795,119.43 69.311,120.42 69.323,120.91 69.338,121.47 69.871,121.19 70.74,120.16 72.958,117.52 74.571,116.92 75.486,118.39 76.2,119.54 76.376,119.56 78.129,118.65 79.257,118.06 80.006,117.94 80.006,118.34 80.006,118.71 79.369,119.27 78.589,119.58 77.202,120.14 77.207,120.15 78.819,120.19 79.725,120.21 81.187,119.66 82.067,118.97 84.099,117.37 84.64,117.37 83.785,118.97 83.328,119.83 83.32,120.23 83.762,120.23 84.121,120.23 84.419,119.88 84.424,119.44 84.43,118.91 84.649,118.96 85.101,119.6 85.596,120.3 85.671,119.9 85.392,118.02 85.042,115.67 85.083,115.58 85.974,116.72 86.502,117.4 86.933,118.46 86.933,119.09 86.933,120.71 88.119,120.51 88.772,118.79 89.415,117.09 91.196,115.46 91.772,116.03 91.993,116.25 91.736,116.93 91.202,117.54 88.728,120.37 89.354,121.85 91.869,119.13 94.554,116.22 95.415,115.78 94.833,117.62 94.104,119.92 96.206,120.63 98.168,118.75 99.127,117.83 100.369,117.07 100.929,117.07 104.039,117.07 107.159,113.51 106.219,111.04 106.009,110.5 106.099,110.22 106.419,110.42 106.729,110.62 107.119,110.27 107.279,109.66 107.439,109.05 107.639,109.69 107.719,111.08 107.859,113.6 107.859,113.6 108.579,110.76 109.739,106.13 110.849,104.75 110.609,108.23 110.319,112.52 107.459,118.34 105.659,118.34 105.149,118.34 105.159,118.12 105.699,117.58 107.129,116.14 106.449,115.72 104.799,117.03 103.879,117.75 102.449,118.34 101.609,118.34 100.769,118.34 100.239,118.59 100.439,118.91 101.399,120.47 96.518,122.1 94.838,120.78 93.954,120.08 93.23,119.76 93.23,120.07 93.23,121.09 88.703,122.89 87.975,122.16 86.739,120.92 84.669,121.47 83.231,123.42 82.45,124.48 81.104,125.62 80.241,125.95 79.377,126.28 78.85,126.83 79.068,127.19 79.313,127.59 80.153,127.34 81.266,126.55 82.269,125.83 83.229,125.53 83.435,125.86 83.637,126.19 83.183,126.65 82.425,126.89 80.956,127.36 80.181,127.9 77.675,130.22 76.806,131.02 76.259,131.84 76.46,132.04 76.661,132.24 77.39,131.73 78.08,130.9 78.77,130.07 79.344,129.61 79.355,129.89 79.367,130.17 78.668,131.16 77.802,132.09 76.936,133.03 76.228,134.15 76.228,134.59 76.228,135.03 75.661,135.96 74.968,136.65 73.709,137.91 73.709,137.91 75.36,137.91 76.99,137.91 76.975,137.96 74.159,141.26 71.307,144.61 71.307,144.61 71.999,147.64 72.653,150.51 72.607,150.74 71.153,151.86 69.616,153.04 69.616,153.04 71.19,153.06 72.217,153.07 73.35,152.37 74.448,151.03 76.599,148.4 77.429,149.15 75.674,152.14 73.898,155.15 74.417,158.64 76.275,156.17 77.69,154.28 78.017,154.64 77.642,157.67 77.4,159.61 77.185,159.92 76.472,159.33 74.824,157.95 75.597,159.78 77.397,161.51 79.195,163.24 79.195,163.24 79.994,160.38 80.433,158.8 81.183,157.19 81.659,156.79 82.758,155.88 82.797,156.75 81.806,160.06 80.948,162.94 82.214,166.32 84.782,168 86.465,169.11 87.521,168.76 86.464,167.45 82.785,162.89 87.678,149.58 94.607,145.29 98.745,142.73 99.562,143.44 95.57,146.12 91.142,149.1 83.194,165.57 87.46,162.92 87.902,162.65 88.052,162.81 87.85,163.33 87.669,163.81 87.945,165.17 88.462,166.37 89.403,168.54 89.403,168.54 89.427,166.63 89.454,164.56 91.1,161.69 91.955,162.22 92.245,162.4 92.182,163.52 91.815,164.72 91.282,166.47 91.368,167.48 92.243,169.78 93.516,173.12 94.209,173.03 94.816,169.42 95.33,166.37 95.838,166.73 97.584,171.37 98.691,174.31 98.755,174.95 98.014,175.7 97.272,176.44 97.078,176.19 96.705,173.98 96.268,171.38 96.268,171.38 95.105,172.8 94.132,173.99 93.744,174.1 92.727,173.48 91.642,172.82 91.434,172.99 90.792,175.06 90.396,176.34 89.101,180.51 87.914,184.33 86.728,188.15 84.87,194.21 83.786,197.79 81.054,206.82 76.308,211.8 70.428,211.8 68.392,211.8 68.356,211.85 68.356,214.64 68.356,218.92 69.777,218.44 77.697,211.45 78.332,210.89 78.976,210.56 79.129,210.71 79.603,211.18 78.649,213.06 77.933,213.06 77.185,213.06 74.339,215.56 74.339,216.22 74.339,216.45 75.191,216.51 76.234,216.35 77.277,216.2 78.577,216.45 79.127,216.91 80.436,217.99 82.147,215.84 83.182,211.8 83.909,208.96 83.909,208.96 84.949,210.52 87.543,214.4 88.619,215.28 89.696,214.38 90.326,213.86 91.436,213.68 92.602,213.91 95.193,214.43 95.054,213.2 92.272,210.97 89.964,209.13 89.792,207.47 92.033,208.67 94,209.73 95.427,208.88 99.825,204.05 104.459,198.96 104.409,199.09 102.629,196.58 101.049,194.36 102.089,194.11 103.809,196.31 105.979,199.07 106.529,196.42 104.829,191.4 103.469,187.41 104.049,186.23 105.739,189.54 107.199,192.4 108.499,192.88 110.589,191.3 111.679,190.47 111.689,190.37 110.719,190.35 109.259,190.32 107.559,187.59 107.869,185.79 108.129,184.33 108.129,184.33 108.739,185.8 109.359,187.27 109.359,187.27 110.109,185.61 110.719,184.26 110.679,183.6 109.899,182.09 108.869,180.09 109.529,179.56 110.929,181.26 111.689,182.17 111.829,182.05 112.219,180.15 112.539,178.62 112.379,177.71 111.689,176.93 111.019,176.19 110.849,175.3 111.159,174.09 111.599,172.33 111.599,172.33 112.389,174.23 113.489,176.83 114.919,177.9 116.599,177.36 117.829,176.97 117.869,176.85 116.959,176.33 115.259,175.38 114.579,173.47 114.039,168.15 113.439,162.14 113.369,162.05 110.969,163.83 109.369,165.01 108.789,165.13 107.189,164.57 106.149,164.21 105.139,164.07 104.929,164.28 104.729,164.48 104.569,164.23 104.569,163.72 104.569,162.72 105.759,161.28 106.579,161.28 106.859,161.28 107.089,161.71 107.089,162.23 107.089,163.56 108.799,163.41 110.689,161.91 112.859,160.2 113.309,160.3 116.199,163.19 118.649,165.65 118.729,165.67 119.889,164.51 120.939,163.45 121.259,163.41 122.739,164.19 125.559,165.67 128.359,165.4 126.909,163.79 125.989,162.77 125.909,162.36 126.539,161.74 127.169,161.12 127.619,161.32 128.719,162.7 129.489,163.66 130.459,164.44 130.879,164.44 133.199,164.44 131.009,165.6 126.759,166.63 120.339,168.18 119.229,168.81 122.909,168.84 124.709,168.85 126.119,169.22 126.609,169.8 127.649,171.07 128.559,171.01 128.059,169.71 127.719,168.84 127.949,168.74 129.499,169.12 135.399,170.59 141.029,170.22 138.789,168.52 137.469,167.52 137.669,167.44 142.039,167.29 147.999,167.08 154.819,163.53 149.679,163.3 146.669,163.17 145.209,163.37 144.569,164.01 143.049,165.54 131.339,165.19 132.379,163.65 132.439,163.56 132.169,162.89 131.769,162.15 130.889,160.5 132.679,158.47 134.409,159.13 135.399,159.51 135.399,159.62 134.439,160.69 132.419,162.93 140.429,164.38 144.239,162.45 144.759,162.19 146.839,161.79 148.869,161.57 152.549,161.17 152.549,161.17 151.119,159.65 148.899,157.28 151.299,157.64 153.819,160.05 155.209,161.38 156.239,161.88 157.129,161.64 157.829,161.45 159.059,161.29 159.859,161.29 161.979,161.28 160.989,160.18 157.239,158.39 153.999,156.85 153.999,156.85 156.479,157.15 157.849,157.32 160.399,158.16 162.139,159.03 163.969,159.93 165.549,160.37 165.869,160.05 166.519,159.4 163.739,157.84 160.769,157.2 159.639,156.96 158.719,156.46 158.719,156.09 158.719,154.92 164.869,156.06 168.099,157.83 169.969,158.85 171.839,159.4 172.959,159.27 175.649,158.94 170.649,156.38 165.589,155.49 161.399,154.75 160.629,153.7 164.279,153.7 167.499,153.7 172.649,155.29 174.709,156.92 175.649,157.66 176.829,158.07 177.389,157.86 179.179,157.17 177.279,155.92 171.499,153.98 165.969,152.12 165.969,152.12 169.239,151.93 171.399,151.81 173.209,152.11 174.559,152.8 179.459,155.34 181.459,155.16 178.219,152.47 176.049,150.66 175.859,149.91 177.589,149.91 178.989,149.91 183.279,153.44 183.279,154.58 183.279,155.73 187.689,160.18 190.519,161.9 196.059,165.26 204.679,175.87 204.699,179.35 204.719,183.52 209.599,189.48 217.669,195.22 226.099,201.21 226.279,201.76 222.369,209.27 222.049,209.9 220.709,210.28 218.449,210.41 215.019,210.59 215.019,210.59 215.029,212.93 215.029,214.22 214.789,215.8 214.489,216.45 213.169,219.33 218.159,216.8 222.859,212.21 226.279,208.88 227.239,208.19 226.539,209.59 226.009,210.63 224.419,212.61 223.009,213.98 219.889,217.01 219.849,217.3 222.569,216.98 223.749,216.84 224.889,217.05 225.139,217.46 225.989,218.84 227.059,217.69 228.609,213.72 z M 232.609,203.95 C 232.869,203.28 232.539,202.14 231.759,201.05 231.049,200.04 230.749,199.09 231.089,198.89 231.899,198.38 233.659,201.02 233.659,202.75 233.659,203.52 233.329,204.35 232.919,204.6 232.419,204.91 232.319,204.71 232.609,203.95 z M 240.439,203.23 C 240.219,203.01 240.359,202.13 240.749,201.27 241.279,200.11 241.279,199.41 240.749,198.56 240.349,197.93 240.199,197.24 240.409,197.03 241.069,196.37 242.479,198.01 242.449,199.4 242.429,201.05 240.989,203.78 240.439,203.23 z M 90.559,200.93 C 89.281,199.32 89.129,197.22 90.213,196.14 91.241,195.11 91.976,195.19 91.976,196.33 91.976,196.85 91.719,197.27 91.405,197.27 90.529,197.27 91.403,199.86 92.41,200.25 93.72,200.75 96.475,197.92 96.033,196.53 95.832,195.89 95.979,195.38 96.361,195.38 97.214,195.38 97.885,197 97.476,198.06 97.31,198.5 97.161,199.1 97.146,199.41 97.029,201.7 92.082,202.84 90.559,200.93 z M 234.019,200.07 C 233.479,199.53 233.029,198.76 233.029,198.37 233.029,197.86 233.249,197.88 233.789,198.41 234.679,199.31 236.809,199.43 236.809,198.58 236.809,198.26 235.959,197.38 234.919,196.64 232.039,194.59 232.419,193.08 235.349,194.94 238.659,197.04 239.229,198.17 237.789,199.76 236.379,201.32 235.349,201.4 234.019,200.07 z M 222.959,195.41 C 222.259,194.95 222.199,194.62 222.739,194.08 223.619,193.2 226.269,193.93 225.929,194.96 225.609,195.94 224.129,196.16 222.959,195.41 z M 228.939,195.38 C 229.149,195.03 229.739,194.75 230.229,194.75 230.729,194.75 231.139,195.03 231.139,195.38 231.139,195.73 230.559,196.01 229.849,196.01 229.129,196.01 228.719,195.73 228.939,195.38 z M 219.909,192.18 C 220.029,191.39 220.499,190.62 220.959,190.47 221.529,190.28 221.729,190.65 221.589,191.63 221.479,192.42 220.999,193.2 220.539,193.35 219.969,193.54 219.769,193.16 219.909,192.18 z M 93.069,188.36 C 91.02,186.83 90.75,184.11 92.489,182.53 93.759,181.38 96.709,181.13 97.32,182.12 97.537,182.47 97.051,182.75 96.218,182.75 93.651,182.75 92.288,184.17 93.296,185.78 94.777,188.16 97.635,187.99 97.635,185.51 97.635,185.04 97.918,184.64 98.264,184.64 99.336,184.64 98.958,187.55 97.742,188.65 96.244,190.01 95.187,189.95 93.069,188.36 z M 220.059,187.56 C 219.529,186.17 220.289,185.28 222.009,185.28 223.649,185.28 224.679,186.35 223.809,187.15 222.589,188.29 220.429,188.52 220.059,187.56 z M 209.209,183.98 C 207.769,182.63 207.489,181.12 208.419,179.66 209.189,178.43 211.239,179.3 210.729,180.64 210.509,181.2 210.769,182.16 211.309,182.75 212.919,184.54 211.009,185.66 209.209,183.98 z M 213.719,184.29 C 213.229,182.99 214.249,181.17 215.469,181.17 216.829,181.17 216.609,184.89 215.239,185.16 214.629,185.27 213.949,184.88 213.719,184.29 z M 104.209,181.65 C 104.299,181.04 104.559,180.61 104.779,180.7 105.009,180.78 105.509,180.86 105.899,180.86 106.389,180.86 106.369,181.15 105.829,181.8 104.769,183.07 104.009,183 104.209,181.65 z M 97.953,181.49 C 97.739,181.14 97.864,180.86 98.231,180.86 98.598,180.86 98.898,181.14 98.898,181.49 98.898,181.83 98.773,182.12 98.62,182.12 98.468,182.12 98.167,181.83 97.953,181.49 z M 101.899,180.98 C 101.699,180.22 101.809,179.42 102.149,179.21 103.169,178.58 103.539,179.49 102.879,180.98 102.259,182.38 102.259,182.38 101.899,180.98 z M 220.719,178.67 C 219.059,177.01 218.709,174.63 219.929,173.4 220.849,172.49 223.589,172.39 223.589,173.28 223.589,173.63 223.149,173.91 222.619,173.91 221.129,173.91 220.789,175.72 222.029,177.09 223.369,178.57 224.569,178.68 225.069,177.38 225.539,176.17 226.729,176.15 226.729,177.35 226.729,179.97 222.869,180.83 220.719,178.67 z M 105.699,176.53 C 103.689,175.5 103.179,175.47 101.399,176.22 98.538,177.42 98.225,177.29 99.246,175.33 99.743,174.37 100.159,172.74 100.169,171.7 100.189,169.45 102.329,164.44 103.279,164.44 104.149,164.44 104.119,164.7 102.899,167.46 101.919,169.68 101.319,174.54 102.029,174.54 102.479,174.54 105.669,171.36 106.779,169.8 107.649,168.57 107.679,168.58 107.699,170.08 107.709,170.93 107.099,172.27 106.359,173.07 104.999,174.51 104.999,174.51 107.609,175.69 109.049,176.33 110.039,177.05 109.809,177.28 109.139,177.96 108.129,177.77 105.699,176.53 z M 207.839,175.84 C 207.839,174.56 209.519,171.08 210.549,170.22 211.879,169.12 213.239,169.87 212.199,171.13 211.789,171.62 210.969,172.93 210.379,174.04 209.279,176.09 207.839,177.11 207.839,175.84 z M 109.789,169.17 C 109.849,166.97 110.419,166.36 111.199,167.63 111.729,168.48 111.019,171.38 110.279,171.38 109.979,171.38 109.759,170.39 109.789,169.17 z M 214.619,168.06 C 212.709,166.5 212.479,164.22 214.029,162.38 215.039,161.19 218.229,160.88 218.859,161.91 219.079,162.26 218.599,162.55 217.799,162.55 214.899,162.57 213.689,165.71 216.079,166.99 217.369,167.68 219.179,166.58 219.179,165.11 219.179,164.74 219.459,164.44 219.809,164.44 220.879,164.44 220.499,167.34 219.279,168.44 217.739,169.84 216.679,169.76 214.619,168.06 z M 200.949,167.95 C 200.179,167.03 201.989,164.44 203.399,164.44 204.449,164.44 204.709,165.56 203.749,165.93 203.229,166.13 202.799,166.58 202.799,166.94 202.799,168.15 204.589,167.61 205.839,166.02 207.319,164.13 207.839,164.03 207.839,165.63 207.839,168.12 202.559,169.9 200.949,167.95 z M 199.029,163.56 C 199.029,162.59 200.349,161.91 202.229,161.91 203.779,161.91 203.779,162.94 202.219,163.78 200.509,164.7 199.029,164.6 199.029,163.56 z M 82.989,162.79 C 82.737,162.54 82.53,161.9 82.53,161.36 82.53,160.65 82.716,160.58 83.231,161.1 83.616,161.48 83.823,162.13 83.69,162.53 83.557,162.93 83.242,163.05 82.989,162.79 z M 123.134,161.89 C 122.604,161.03 123.224,160.23 124.714,159.84 126.324,159.41 126.334,160.06 124.744,161.43 124.034,162.04 123.344,162.24 123.134,161.89 z M 87.8,161.15 C 87.926,160.24 90.426,157.49 91.128,157.49 91.248,157.49 91.346,157.92 91.346,158.44 91.346,158.96 91.037,159.38 90.66,159.38 90.283,159.38 89.451,160.02 88.812,160.81 87.897,161.93 87.682,162 87.8,161.15 z M 217.45,160.18 C 214.74,158.64 213.99,157.49 215.7,157.49 216.72,157.49 220.95,161.01 220.44,161.43 220.26,161.58 218.92,161.01 217.45,160.18 z M 102.68,160.48 C 102.68,159.62 105.13,157.84 105.62,158.34 105.79,158.51 105.61,159.24 105.23,159.96 104.46,161.4 102.68,161.76 102.68,160.48 z M 206.97,158.2 C 205.6,156.68 205.97,152.73 207.6,151.48 208.98,150.44 210.99,150.26 210.99,151.18 210.99,151.52 210.6,151.81 210.12,151.81 208.53,151.81 207.11,155.7 208.25,156.96 209.62,158.48 210.86,157.76 212.35,154.57 213.07,153.05 214.04,151.81 214.52,151.81 215.7,151.81 215.61,152.45 214.14,154.33 213.46,155.2 212.9,156.25 212.89,156.66 212.85,159.15 208.78,160.21 206.97,158.2 z M 93.64,156.97 C 92.5,155.7 92.221,153.07 93.227,153.07 93.574,153.07 93.857,153.37 93.857,153.75 93.857,155.55 97.483,156.79 97.682,155.05 97.708,154.83 97.849,154 97.996,153.21 98.214,152.03 97.922,151.71 96.375,151.4 93.979,150.92 93.914,149.91 96.278,149.91 100.046,149.91 101.426,154.6 98.315,156.82 96.073,158.42 94.985,158.46 93.64,156.97 z M 117.006,156.7 C 114.366,154.52 115.396,149.91 118.516,149.91 120.056,149.91 119.996,150.99 118.426,151.49 117.556,151.77 117.256,152.3 117.436,153.27 117.576,154.03 117.716,154.83 117.736,155.05 117.936,156.79 121.566,155.55 121.566,153.75 121.566,153.37 121.846,153.07 122.196,153.07 123.266,153.07 122.886,155.97 121.676,157.08 120.126,158.48 119.066,158.39 117.006,156.7 z M 189.046,156.65 C 186.226,153.63 189.266,148.65 193.926,148.65 196.656,148.65 196.356,149.57 193.326,150.48 189.226,151.71 188.216,156.23 192.046,156.23 193.976,156.23 197.136,153.59 197.136,151.97 197.136,151.53 197.616,151.18 198.206,151.18 199.036,151.18 199.106,151.34 198.516,151.93 198.106,152.35 197.756,153.13 197.756,153.67 197.716,157.04 191.416,159.19 189.046,156.65 z M 140.146,156.23 C 137.796,154.69 136.916,151.4 138.396,149.75 139.476,148.56 142.656,148.25 143.286,149.28 143.506,149.63 143.036,149.92 142.226,149.92 140.166,149.94 139.226,150.69 139.496,152.14 139.626,152.82 139.756,153.57 139.776,153.79 139.986,155.52 143.606,154.28 143.606,152.48 143.606,152.11 143.886,151.81 144.236,151.81 145.286,151.81 144.896,154.56 143.646,156.07 142.216,157.78 142.466,157.77 140.146,156.23 z M 108.336,154.75 C 108.336,153.6 110.396,151.81 111.696,151.81 112.906,151.81 113.036,152.62 112.096,154.37 111.356,155.77 108.336,156.07 108.336,154.75 z M 78.309,153.3 C 77.933,152.32 77.858,146.35 78.12,138.4 78.231,135.05 78.392,134.69 80.298,133.51 84.403,130.96 84.337,132.34 80.214,135.26 79.001,136.12 79.669,136.03 82.214,135 83.771,134.37 82.69,136.28 81.093,136.98 79.38,137.73 79.688,138.94 81.517,138.65 82.727,138.45 82.693,138.58 81.105,140.26 79.221,142.25 78.813,143.77 80.318,143.19 81.5,142.74 81.535,143.5 80.393,144.81 78.627,146.83 78.442,148.83 80.068,148.31 81.499,147.86 81.503,147.87 80.432,149.51 79.741,150.57 79.492,151.74 79.744,152.75 80.189,154.53 78.96,155 78.309,153.3 z M 82.977,150.79 C 82.436,150.25 83.642,148.02 84.477,148.02 84.835,148.02 85.038,148.64 84.927,149.39 84.721,150.8 83.708,151.52 82.977,150.79 z M 171.586,150.59 C 171.266,150.29 170.436,149.91 169.736,149.76 168.556,149.49 168.546,149.45 169.626,148.98 170.396,148.65 171.126,148.82 171.796,149.5 172.846,150.54 172.636,151.6 171.586,150.59 z M 210.626,147.91 C 207.906,146.11 205.996,144.53 206.396,144.4 207.866,143.9 216.656,149.2 216.656,150.58 216.656,151.67 215.616,151.21 210.626,147.91 z M 123.736,147.73 C 121.786,145.77 121.796,144.84 123.816,142.66 124.926,141.46 125.636,141.11 126.086,141.56 126.526,142 126.316,142.63 125.406,143.53 123.766,145.18 123.746,145.9 125.306,146.73 127.866,148.11 128.966,147.54 131.966,143.28 132.736,142.19 132.866,142.17 132.876,143.09 132.936,145.88 128.906,150.35 127.876,148.66 127.526,148.11 127.266,148.08 126.956,148.58 126.296,149.66 125.426,149.43 123.736,147.73 z M 157.746,147.73 C 155.786,145.77 155.806,144.84 157.816,142.66 158.926,141.46 159.646,141.11 160.086,141.56 160.526,142 160.316,142.63 159.416,143.53 157.776,145.18 157.746,145.9 159.306,146.73 161.876,148.11 162.976,147.54 165.976,143.28 166.746,142.19 166.866,142.17 166.886,143.09 166.936,145.88 162.916,150.35 161.876,148.66 161.536,148.11 161.276,148.08 160.966,148.58 160.306,149.66 159.436,149.43 157.746,147.73 z M 199.036,148.49 C 199.046,147.07 200.036,146.08 201.746,145.77 203.676,145.42 203.836,145.9 202.446,147.88 201.406,149.38 199.016,149.81 199.036,148.49 z M 73.446,147.61 C 73.229,147.04 73.199,146.43 73.38,146.24 73.562,146.06 73.738,146.32 73.773,146.81 73.807,147.3 74.062,146.99 74.34,146.12 74.844,144.54 74.844,144.54 74.907,146.24 74.98,148.22 74.023,149.12 73.446,147.61 z M 106.64,146.95 C 104.9,144.41 105,142.58 106.95,141.04 108.64,139.71 109.87,140.42 108.42,141.88 105.84,144.47 109.21,147.53 112.03,145.16 113.92,143.56 115.27,143.15 115.27,144.17 115.27,144.99 111.56,148.02 110.55,148.02 110.09,148.02 109.29,148.18 108.78,148.37 108.22,148.59 107.39,148.04 106.64,146.95 z M 178.01,146.35 C 179.03,143.9 178.57,143 176.28,142.98 174.9,142.96 173.48,144.63 174.55,144.99 175.54,145.33 174.67,146.76 173.48,146.76 172.11,146.76 172.36,143.36 173.84,142.02 176.97,139.17 181.75,142.77 179.76,146.47 178.12,149.51 176.73,149.41 178.01,146.35 z M 85.045,145.22 C 85.045,143.97 86.465,141.7 87.25,141.7 88.131,141.7 88.131,141.89 87.249,143.6 86.434,145.18 85.045,146.2 85.045,145.22 z M 144.02,144.34 C 142.88,143.07 142.6,140.44 143.61,140.44 143.96,140.44 144.24,140.74 144.24,141.12 144.24,143.76 147.77,143.88 148.42,141.25 148.87,139.48 147.93,138.57 145.62,138.56 144.81,138.55 144.34,138.26 144.55,137.91 145.19,136.88 148.38,137.2 149.38,138.39 152.41,141.99 147.16,147.81 144.02,144.34 z M 89.453,143.7 C 89.453,143.4 90.002,142.66 90.673,142.05 92.306,140.57 93.518,141.35 92.122,142.99 91.047,144.25 89.453,144.67 89.453,143.7 z M 194.253,143.51 C 194.003,143.1 194.283,142.42 194.893,141.97 195.913,141.22 195.903,141.13 194.713,140.49 193.023,139.58 190.023,139.62 189.083,140.57 188.503,141.14 188.153,141.15 187.593,140.59 186.773,139.77 186.893,139.7 191.143,138.59 193.713,137.92 197.673,139.2 198.233,140.89 198.583,141.94 194.813,144.42 194.253,143.51 z M 74.343,142.97 C 74.343,142.62 74.626,142.33 74.972,142.33 75.319,142.33 75.602,142.62 75.602,142.97 75.602,143.31 75.319,143.6 74.972,143.6 74.626,143.6 74.343,143.31 74.343,142.97 z M 187.523,143.22 C 186.833,142.53 187.663,141.7 189.043,141.7 189.783,141.7 190.203,142.03 190.053,142.49 189.753,143.39 188.153,143.85 187.523,143.22 z M 96.383,142.3 C 96.383,141.53 99.018,139.81 100.183,139.81 100.733,139.81 102.653,139.1 104.453,138.23 108.123,136.45 108.343,136.4 108.343,137.29 108.343,137.98 106.613,138.84 100.323,141.29 98.154,142.13 96.383,142.58 96.383,142.3 z M 217.003,141.96 C 216.143,141.33 216.053,141.07 216.703,141.08 217.963,141.09 219.423,142.11 218.773,142.52 218.463,142.7 217.673,142.45 217.003,141.96 z M 112.123,141.44 C 112.123,140.95 111.773,140.41 111.343,140.25 110.823,140.06 110.943,139.79 111.713,139.47 112.473,139.16 113.083,139.31 113.443,139.87 114.293,141.22 114.123,142.33 113.073,142.33 112.553,142.33 112.123,141.93 112.123,141.44 z M 205.323,141.36 C 204.463,140.89 203.183,140.31 202.493,140.06 201.303,139.64 201.303,139.6 202.403,139.34 203.913,138.98 209.223,141 208.753,141.76 208.283,142.52 207.243,142.4 205.323,141.36 z M 137.473,140.61 C 136.373,140.23 136.483,138.55 137.613,138.55 138.123,138.55 139.163,137.69 139.933,136.65 141.123,135.04 143.573,133.84 142.833,135.23 142.703,135.49 142.233,136.59 141.813,137.67 141.023,139.67 138.903,141.1 137.473,140.61 z M 97.365,139.32 C 96.832,138.79 98.277,136.65 99.172,136.65 99.861,136.65 100.793,137.91 100.793,138.84 100.793,139.19 97.675,139.63 97.365,139.32 z M 85.334,138.5 C 84.896,137.79 87.359,134.76 88.375,134.76 89.159,134.76 88.299,138.09 87.36,138.69 86.339,139.34 85.822,139.29 85.334,138.5 z M 157.933,137.58 C 155.383,135.84 154.933,133.58 156.733,131.44 157.733,130.25 160.923,129.94 161.563,130.97 161.773,131.32 161.303,131.6 160.493,131.61 158.433,131.62 157.503,132.38 157.773,133.83 157.893,134.51 158.023,135.26 158.053,135.48 158.253,137.21 161.873,135.97 161.873,134.17 161.873,133.8 162.163,133.49 162.503,133.49 163.553,133.49 163.173,136.24 161.913,137.76 160.463,139.49 160.763,139.51 157.933,137.58 z M 91.5,135.86 C 91.642,135.43 92.431,134.97 93.254,134.85 94.559,134.66 94.643,134.76 93.914,135.64 92.928,136.83 91.126,137 91.5,135.86 z M 177.463,135.97 C 176.263,135.27 175.993,133.79 176.963,133.19 177.303,132.99 178.153,133.4 178.873,134.12 179.913,135.17 180.413,135.28 181.443,134.73 183.533,133.61 185.043,134.16 183.663,135.55 182.463,136.76 179.193,136.98 177.463,135.97 z M 98.902,135.53 C 98.902,134.58 101.363,132.89 101.773,133.56 101.993,133.92 101.653,134.61 101.013,135.09 99.698,136.09 98.902,136.26 98.902,135.53 z M 108.343,135.63 C 108.343,135.28 109.253,134.33 110.353,133.51 112.353,132.03 112.353,132.03 110.883,131.48 109.813,131.08 109.103,131.23 108.203,132.05 107.033,133.11 106.933,133.11 106.093,131.96 105.133,130.63 106.033,128.73 107.263,129.5 109.413,130.83 111.383,130.17 112.473,127.73 113.653,125.12 113.993,124.89 115.083,125.98 115.593,126.48 115.443,127.01 114.543,127.92 113.673,128.79 113.493,129.39 113.933,129.92 114.773,130.94 112.403,134.76 110.933,134.76 110.343,134.76 109.523,135.1 109.103,135.51 108.673,135.95 108.343,136 108.343,135.63 z M 117.543,133.87 C 117.923,132.88 119.573,132.29 120.813,132.71 122.103,133.15 120.433,134.76 118.683,134.76 117.673,134.76 117.313,134.48 117.543,133.87 z M 235.083,133.69 C 235.643,133.13 236.893,132.65 237.873,132.61 239.243,132.56 239.933,132.01 240.903,130.18 242.783,126.64 244.083,127.51 242.413,131.18 241.583,133 239.933,133.9 236.543,134.37 234.263,134.69 234.143,134.63 235.083,133.69 z M 89.453,130.4 C 89.453,129.76 91.371,128.89 91.81,129.33 91.969,129.49 91.911,129.92 91.683,130.29 91.181,131.11 89.453,131.19 89.453,130.4 z M 100.79,129.74 C 100.79,129.41 101.4,128.71 102.16,128.18 103.34,127.35 103.39,127.17 102.5,126.83 101.26,126.35 99.971,122.72 100.53,121.26 101.64,118.36 107.09,119.18 107.09,122.25 107.09,123.61 107.09,123.61 105.63,122.24 103.23,119.98 100.93,120.99 102.18,123.75 103.14,125.86 104.56,126.16 106.58,124.66 107.99,123.62 108.34,123.54 108.34,124.3 108.34,124.82 106.83,126.39 104.98,127.79 101.5,130.42 100.79,130.76 100.79,129.74 z M 115.9,129.11 C 115.9,128.44 116.22,127.69 116.6,127.45 117.6,126.83 118.49,128.55 117.68,129.53 116.7,130.71 115.9,130.52 115.9,129.11 z M 94.263,128.13 C 94.463,127.6 94.879,127.18 95.188,127.18 95.497,127.18 95.75,127.6 95.75,128.13 95.75,128.65 95.334,129.07 94.826,129.07 94.262,129.07 94.042,128.7 94.263,128.13 z M 88.844,128.04 C 88.813,126.98 90.506,123.91 91.458,123.3 93.299,122.13 94.175,122.73 92.739,124.18 91.964,124.96 90.775,126.31 90.097,127.18 89.42,128.05 88.856,128.43 88.844,128.04 z M 95.121,125.28 C 95.121,124.94 95.562,124.65 96.102,124.65 96.642,124.65 96.909,124.94 96.695,125.28 96.481,125.63 96.039,125.92 95.713,125.92 95.387,125.92 95.121,125.63 95.121,125.28 z M 107.54,120.45 C 107.36,120.16 108.46,118.73 109.98,117.28 111.51,115.84 112.75,115 112.75,115.42 112.75,116.47 107.94,121.11 107.54,120.45 z M 111.21,119.64 C 111.01,119.32 111.13,118.88 111.48,118.66 112.23,118.19 113.38,118.79 113.38,119.64 113.38,120.41 111.68,120.41 111.21,119.64 z M 95.385,115.88 C 93.465,114.71 89.453,110.29 89.453,109.35 89.453,108.07 91.338,109.1 92.678,111.12 93.502,112.36 95.239,113.93 96.538,114.6 98.857,115.82 99.662,117.08 98.112,117.07 97.679,117.07 96.452,116.54 95.385,115.88 z M 100.79,115.77 C 100.79,115.41 99.513,113.94 97.954,112.52 96.396,111.1 95.121,109.55 95.121,109.08 95.121,107.81 96.185,108.06 97.242,109.57 97.755,110.3 99.046,111.44 100.11,112.09 101.18,112.74 102.06,113.77 102.07,114.38 102.08,115.44 102.12,115.44 102.73,114.39 103.08,113.78 103.8,113.29 104.32,113.29 104.96,113.29 104.71,113.8 103.56,114.86 101.75,116.55 100.79,116.86 100.79,115.77 z M 102.96,112.1 C 102.22,111.36 102.81,110.69 104.04,110.87 105.82,111.14 106.23,112.38 104.54,112.38 103.83,112.38 103.12,112.26 102.96,112.1 z M 101.11,110.76 C 100.89,110.41 101.03,110.13 101.41,110.13 101.79,110.13 102.02,109.66 101.92,109.09 101.82,108.52 102.09,107.92 102.52,107.77 102.95,107.62 103.31,107.97 103.31,108.54 103.31,109.92 101.63,111.61 101.11,110.76 z M 103.94,109.12 C 103.94,108.88 104.43,108.33 105.04,107.88 106.07,107.12 106.05,106.95 104.67,105.08 102.67,102.36 103.52,101.84 105.95,104.28 107.66,105.99 107.81,106.41 107.09,107.28 106.1,108.48 103.94,109.73 103.94,109.12 z M 86.462,106.81 C 83.932,105.53 82.999,104.44 84.436,104.44 85.254,104.44 91.342,107.52 91.342,107.93 91.342,108.62 88.973,108.07 86.462,106.81 z M 97.154,106.22 C 97.291,105.81 97.74,105.36 98.152,105.22 98.612,105.07 98.753,105.36 98.517,105.97 98.078,107.12 96.776,107.36 97.154,106.22 z M 100.47,106.34 C 99.973,105.53 100.64,104.44 101.63,104.44 102.06,104.44 102.41,105.01 102.41,105.71 102.41,107.02 101.15,107.44 100.47,106.34 z M 92.38,105.86 C 91.785,104.89 93.813,102.88 94.593,103.66 95.142,104.21 95.122,104.63 94.513,105.37 93.634,106.43 92.843,106.61 92.38,105.86 z M 108.42,104.59 C 108.38,104.15 107.18,102.51 105.75,100.96 103.01,97.979 103.21,97.193 106.12,99.49 107.71,100.75 107.83,100.76 107.62,99.67 107.49,99.021 106.46,97.859 105.32,97.087 103.28,95.713 103.27,95.67 104.59,94.962 105.33,94.564 106.1,94.404 106.3,94.606 106.5,94.807 106.43,94.973 106.15,94.973 105.87,94.973 106.2,95.47 106.89,96.078 108.97,97.902 109.48,99.499 108.97,102.55 108.71,104.11 108.47,105.03 108.42,104.59 z M 97.686,102.29 C 96.739,101.15 97.788,100.42 99.568,100.98 100.6,101.31 100.71,101.57 100.11,102.29 99.182,103.41 98.617,103.42 97.686,102.29 z M 101.73,101.29 C 101.95,100.94 102.41,100.66 102.75,100.66 103.1,100.66 103.21,100.94 102.99,101.29 102.78,101.63 102.32,101.92 101.97,101.92 101.63,101.92 101.52,101.63 101.73,101.29 z M 94.176,100.02 C 94.39,99.677 94.832,99.393 95.158,99.393 95.484,99.393 95.75,99.677 95.75,100.02 95.75,100.37 95.309,100.66 94.769,100.66 94.229,100.66 93.962,100.37 94.176,100.02 z M 84.229,99.271 C 83.243,98.529 83.622,98.422 87.187,98.433 91.52,98.447 91.89,99.28 87.798,99.807 86.282,100 84.932,99.799 84.229,99.271 z M 70.561,98.762 C 70.561,98.414 70.861,98.13 71.228,98.13 71.595,98.13 71.72,98.414 71.506,98.762 71.292,99.109 70.992,99.393 70.839,99.393 70.686,99.393 70.561,99.109 70.561,98.762 z M 72.45,97.461 C 72.45,97.093 72.734,96.968 73.08,97.183 73.427,97.397 73.71,97.698 73.71,97.852 73.71,98.005 73.427,98.13 73.08,98.13 72.734,98.13 72.45,97.829 72.45,97.461 z M 97.01,97.146 C 97.01,96.604 97.298,96.339 97.65,96.558 98.002,96.776 98.127,97.219 97.928,97.542 97.388,98.418 97.01,98.255 97.01,97.146 z M 70.561,96.236 C 70.561,95.888 70.861,95.604 71.228,95.604 71.595,95.604 71.72,95.888 71.506,96.236 71.292,96.583 70.992,96.867 70.839,96.867 70.686,96.867 70.561,96.583 70.561,96.236 z M 84.258,95.874 C 83.305,95.356 82.526,94.494 82.526,93.959 82.526,93.168 82.836,93.231 84.185,94.295 85.13,95.041 86.773,95.604 88.001,95.604 89.278,95.604 89.998,95.862 89.768,96.236 89.201,97.156 86.258,96.963 84.258,95.874 z M 85.99,93.954 C 84.951,93.398 83.109,92.567 81.896,92.108 80.419,91.548 80.108,91.257 80.952,91.224 83.044,91.143 86.438,88.667 84.465,88.662 83.626,88.659 82.44,89.112 81.828,89.667 81.217,90.222 80.426,90.496 80.07,90.275 79.706,90.05 80.477,88.921 81.839,87.688 84.289,85.468 85.847,84.718 84.415,86.447 83.737,87.267 84.086,87.412 87.014,87.527 91.357,87.696 94.565,87.852 95.719,87.949 97.21,88.075 95.637,89.164 93.546,89.453 91.657,89.714 91.657,89.714 93.588,90.544 95.519,91.373 95.519,91.373 92.107,93.173 88.111,95.281 88.401,95.244 85.99,93.954 z M 88.32,92.952 C 87.334,91.963 87.351,90.122 88.351,89.669 88.784,89.472 88.602,89.377 87.946,89.458 85.955,89.703 85.132,91.719 86.582,92.799 88.065,93.904 89.384,94.019 88.32,92.952 z M 97.128,92.407 C 97.279,91.951 97.775,91.454 98.23,91.302 98.702,91.144 98.938,91.381 98.781,91.855 98.629,92.31 98.133,92.808 97.679,92.96 97.207,93.118 96.97,92.881 97.128,92.407 z M 103.66,88.29 C 104.95,87.24 104.94,87.24 101.58,88.408 100.97,88.619 101.22,88.264 102.13,87.619 103.47,86.674 103.64,86.301 102.98,85.687 102.33,85.086 101.97,85.219 101.22,86.319 99.986,88.142 98.4,86.984 99.446,85.023 101.39,81.379 106.5,78.651 107.33,80.816 108.52,83.907 106.25,89.289 103.77,89.289 102.46,89.289 102.46,89.273 103.66,88.29 z M 146.86,215.59 C 148.98,215.59 150.34,213.16 149.31,211.22 148.6,209.9 148.5,209.95 145.8,212.88 143.02,215.91 141.73,218.81 144.13,216.63 144.76,216.06 145.99,215.59 146.86,215.59 z M 152.48,216.22 C 152.8,216.22 153.06,215.65 153.06,214.96 153.06,214.12 153.8,213.4 155.32,212.76 156.56,212.24 158.7,210.93 160.07,209.84 161.44,208.75 162.71,208 162.88,208.18 163.59,208.89 158.21,213.7 156.28,214.09 153.57,214.63 154.15,215.96 156.99,215.7 158.22,215.59 159.41,215.81 159.64,216.18 160.51,217.59 162.29,216.74 165.15,213.54 167.98,210.37 168.12,210.3 168.14,211.92 168.18,214.49 170.87,217.38 172.19,216.28 172.82,215.75 173.93,215.58 175.1,215.81 177.69,216.33 177.68,214.22 175.1,211.8 171.99,208.89 172.41,208.05 176.04,209.9 179.62,211.73 181.97,211.18 180.12,208.94 179.7,208.44 179.54,207.56 179.76,207 180.18,205.89 182.65,208.33 182.65,209.85 182.65,210.23 183.08,210.54 183.61,210.54 184.88,210.54 186.05,207.5 185.19,206.45 184.84,206.03 184.74,205.5 184.96,205.27 185.6,204.63 187.06,206.14 187.06,207.46 187.06,208.82 187.73,208.98 188.82,207.88 189.84,206.87 189.75,204.81 188.62,203.31 186.81,200.91 187.63,200.25 189.92,202.26 192.03,204.13 193.91,204.72 194.83,203.8 195.05,203.57 194.4,202.87 193.37,202.24 191.13,200.88 190.59,199.05 190.99,194.25 191.23,191.32 191.05,190.34 190,188.92 188.39,186.73 189.11,185.87 191.04,187.69 193.01,189.55 194.62,189.48 194.62,187.54 194.62,186.6 193.95,185.53 192.89,184.75 191.24,183.55 191.22,183.44 192.26,182.28 193.67,180.73 193.67,178.57 192.26,177.75 191.25,177.16 191.27,177.1 192.45,177.09 193.16,177.08 194.08,177.41 194.49,177.82 195.04,178.38 195.25,178.39 195.25,177.86 195.25,177.46 194.75,176.81 194.15,176.43 193.21,175.84 193.31,175.77 194.79,176 195.75,176.14 196.69,176.02 196.87,175.72 197.06,175.42 196.8,175.17 196.3,175.17 195.79,175.17 195.22,174.75 195.02,174.22 194.82,173.7 194.15,173.28 193.54,173.29 192.68,173.29 192.61,173.42 193.25,173.83 193.94,174.27 193.93,174.43 193.18,174.72 192.68,174.91 191.17,174.39 189.82,173.56 188.48,172.73 187.6,172.05 187.87,172.03 188.63,172 187.11,169.49 186.33,169.49 185.86,169.49 185.88,169.77 186.38,170.38 187.27,171.44 186.23,172.36 185.01,171.6 184.14,171.05 183,170.75 180.99,170.54 180.25,170.46 179.24,170.06 178.74,169.64 177.78,168.84 176.4,168.96 173.84,170.06 172.54,170.62 172.81,170.68 175.41,170.38 177.72,170.12 178.31,170.21 177.61,170.7 176.87,171.22 177.14,171.38 178.87,171.42 180.09,171.45 181.75,171.6 182.57,171.75 184.55,172.12 192.35,175.76 191.97,176.14 191.49,176.63 187.69,175.7 187.69,175.09 187.69,174.79 187.39,174.54 187.02,174.54 186.66,174.54 186.53,174.82 186.75,175.17 187.33,176.12 186.68,175.96 183.09,174.26 179.93,172.77 176.61,172.38 171.48,172.91 170.35,173.03 169,173.16 168.48,173.2 167.96,173.24 167.54,173.53 167.54,173.83 167.54,174.14 169.17,174.26 171.16,174.1 176.47,173.67 177.14,173.67 178.87,174.08 180.7,174.51 190.56,178.08 191.48,178.65 192.47,179.27 192.19,180.4 191.15,179.98 187.86,178.64 187.94,178.64 188.95,179.89 189.85,181 189.81,181.02 188.32,180.23 187.45,179.78 186.57,179.14 186.36,178.81 185.87,178.06 176.94,175.01 176.5,175.45 176.33,175.62 176.93,176.05 177.84,176.4 178.76,176.75 179.5,177.19 179.5,177.38 179.5,177.83 176.23,177.04 175.4,176.39 174.6,175.77 169.7,176.21 168.29,177.04 167.5,177.5 168.18,177.66 170.88,177.68 178.63,177.72 186.45,179.64 189.89,182.35 190.88,183.13 190.94,183.35 190.18,183.36 189.64,183.37 188.93,183.12 188.6,182.8 185.29,179.58 167.33,177.83 165.43,180.54 164.79,181.46 164.4,182.34 164.56,182.5 165.01,182.95 167.68,183.47 169.58,183.47 170.52,183.47 171.44,183.7 171.62,183.99 171.8,184.28 170.93,184.47 169.7,184.41 168.47,184.35 167.12,184.52 166.71,184.78 166.25,185.07 166.57,185.28 167.54,185.33 169.11,185.4 169.11,185.4 167.54,185.84 165.88,186.31 165.58,188.66 166.63,193 167.29,195.72 166.43,198.8 164,202.44 160.25,208.05 159.32,208.64 154.21,208.64 150.21,208.64 149.82,208.75 150.27,209.75 150.94,211.2 150.91,214.33 150.23,215.86 149.78,216.85 149.88,216.99 150.79,216.64 151.4,216.41 152.16,216.22 152.48,216.22 z M 182.41,203.22 C 182.2,202.67 182.02,201.76 182.02,201.2 182.02,199.89 183,200.9 183.57,202.8 184.05,204.4 183,204.78 182.41,203.22 z M 167.89,200.47 C 166.72,199.18 167.02,197.91 168.5,197.91 169,197.91 169.24,198.29 169.05,198.79 168.52,200.17 169.88,200.59 172.28,199.79 175.31,198.79 176.48,199.37 174.03,200.65 171.36,202.03 169.24,201.97 167.89,200.47 z M 183.94,198.91 C 183.62,198.08 183.06,197.21 182.69,196.98 181.73,196.39 181.86,194.73 182.84,195.1 183.76,195.46 185.8,198.66 185.8,199.74 185.8,201.02 184.52,200.45 183.94,198.91 z M 183.13,191.87 C 180.62,190.56 179.2,189.07 180.47,189.07 181.07,189.07 188.32,192.86 188.32,193.18 188.32,193.92 185.88,193.3 183.13,191.87 z M 186.73,189.78 C 184.58,187.71 180,185.76 178.58,186.3 177.04,186.89 174,185.96 175.13,185.24 175.88,184.76 175.85,184.66 174.94,184.65 174.33,184.65 173.84,184.41 173.84,184.13 173.84,183.69 179.79,184.12 180.76,184.62 180.94,184.71 182.24,185.34 183.67,186.01 186.76,187.46 188.95,189.4 188.95,190.67 188.95,191.89 188.91,191.88 186.73,189.78 z M 178.87,185.63 C 178.87,185.48 178.59,185.18 178.24,184.96 177.9,184.75 177.61,184.87 177.61,185.24 177.61,185.61 177.9,185.91 178.24,185.91 178.59,185.91 178.87,185.78 178.87,185.63 z M 166.92,189.86 C 166.91,188.83 167.53,188.19 169.19,187.49 171.81,186.4 173.84,186.25 173.84,187.17 173.84,187.52 173.4,187.8 172.86,187.8 171.63,187.8 168.01,189.64 167.39,190.57 167.12,190.98 166.92,190.68 166.92,189.86 z M 185.71,184.34 C 184.96,183.59 174.96,182.02 170.59,181.97 166.33,181.91 165.88,181.8 166.71,180.97 167.68,179.99 169.06,179.9 173.93,180.49 180.78,181.32 191.24,184.54 187.32,184.62 186.6,184.63 185.87,184.51 185.71,184.34 z M 61.62,214.05 C 65.385,212.65 67.409,211.21 67.409,209.94 67.409,207.5 70.301,205.84 73.096,206.68 77.518,208.01 79.047,206.51 81.961,198.02 83.126,194.63 83.125,194.59 81.815,192.74 80.214,190.49 80.88,189.4 82.576,191.5 83.239,192.32 83.782,192.7 83.782,192.34 83.782,191.99 83.954,191.24 84.164,190.7 84.402,190.07 84.209,189.7 83.652,189.7 82.365,189.7 80.003,186.24 80.003,184.35 80.003,183.24 80.341,182.75 81.105,182.76 82.488,182.78 85.487,185.04 84.904,185.62 84.666,185.86 84.012,185.6 83.452,185.04 81.403,182.98 80.342,184.47 82.305,186.65 83.906,188.42 84.779,188.05 85.869,185.12 87.717,180.16 87.801,179.12 86.393,178.67 84.925,178.21 81.006,173.96 81.545,173.42 81.743,173.22 82.682,173.78 83.631,174.67 86.873,177.7 87.984,177.94 88.429,175.71 89.053,172.58 88.937,172.31 86.615,171.47 85.403,171.03 83.561,169.95 82.522,169.08 80.633,167.48 80.633,167.48 80.633,171.82 80.633,176.56 80.095,178.82 76.376,189.7 71.09,205.16 67.231,209.73 60.085,209.01 56.224,208.62 56.224,208.62 56.306,212.15 56.398,216.09 56.262,216.04 61.62,214.05 z M 82.568,181.09 C 81.241,179.39 80.744,176.67 81.892,177.38 82.239,177.6 82.522,178.16 82.522,178.63 82.522,179.1 83.394,180.22 84.46,181.12 86.131,182.53 86.224,182.75 85.135,182.75 84.441,182.75 83.286,182 82.568,181.09 z M 73.383,209.79 C 75.008,209.05 75.008,209.05 73.001,208.2 71.245,207.46 70.848,207.49 69.831,208.41 67.541,210.49 69.872,211.4 73.383,209.79 z M 220.933,208.52 C 222.993,206.45 218.983,205.97 216.563,207.99 215.073,209.23 215.073,209.23 217.623,209.25 219.033,209.26 220.513,208.93 220.933,208.52 z M 63.753,207.31 C 64.798,206.75 64.883,206.5 64.184,206.06 62.883,205.23 60.726,205.37 59.93,206.33 58.579,207.96 61.257,208.65 63.753,207.31 z M 155.562,207.16 C 155.562,205.7 153.142,204.96 152.112,206.11 150.982,207.36 151.002,207.38 153.262,207.38 154.532,207.38 155.562,207.28 155.562,207.16 z M 76.221,110.97 C 76.221,109.12 76.109,109.14 75.024,111.23 74.414,112.41 74.453,112.65 75.254,112.65 75.882,112.65 76.221,112.06 76.221,110.97 z M 83.403,110.69 C 80.84,107.85 77.563,106.74 77.109,108.55 76.499,110.99 77.789,112.02 81.433,112.02 84.602,112.02 84.602,112.02 83.403,110.69 z M 74.332,109.62 C 74.332,108.35 72.552,107.6 69.534,107.6 64.631,107.6 63.321,108.31 66.46,109.27 69.354,110.15 74.332,110.37 74.332,109.62 z M 76.221,106.93 C 76.221,106.04 75.785,105.71 74.617,105.71 73.03,105.71 73.025,105.72 74.145,107.22 75.404,108.91 76.221,108.79 76.221,106.93 z M 96.038,80.044 C 95.183,78.78 94.483,77.359 94.483,76.887 94.483,75.335 89.64,77.603 88.338,79.764 87.312,81.467 88.274,81.463 89.813,79.758 90.469,79.031 91.575,78.142 92.272,77.782 93.176,77.314 93.009,77.693 91.689,79.103 90.349,80.535 90.112,81.08 90.829,81.08 91.374,81.08 92.299,80.345 92.886,79.446 93.474,78.548 94.095,77.955 94.269,78.128 94.442,78.302 94.103,79.179 93.516,80.078 92.406,81.777 92.976,82.293 94.45,80.922 95.142,80.277 95.227,80.335 94.91,81.238 94.61,82.094 94.868,82.343 96.058,82.343 97.594,82.343 97.594,82.343 96.038,80.044 z"
         id="path3013"
         inkscape:connector-curvature="0" />
    </g>
  </g>
</svg>
